<svg width="100" height="100" viewBox="0 0 100 100" fill="none" xmlns="http://www.w3.org/2000/svg">
  <rect width="100" height="100" rx="22" fill="#0f172a"/>
  <circle cx="22" cy="22" r="2.5" fill="#1e40af" opacity="0.5"/>
  <circle cx="50" cy="22" r="2.5" fill="#1e40af" opacity="0.5"/>
  <circle cx="78" cy="22" r="2.5" fill="#1e40af" opacity="0.5"/>
  <circle cx="22" cy="50" r="2.5" fill="#1e40af" opacity="0.5"/>
  <circle cx="78" cy="50" r="2.5" fill="#1e40af" opacity="0.5"/>
  <circle cx="22" cy="78" r="2.5" fill="#1e40af" opacity="0.5"/>
  <circle cx="50" cy="78" r="2.5" fill="#1e40af" opacity="0.5"/>
  <circle cx="78" cy="78" r="2.5" fill="#1e40af" opacity="0.5"/>
  <rect x="28" y="26" width="6" height="48" rx="3" fill="url(#g1)"/>
  <path d="M34 26 L52 26 Q64 26 64 38 Q64 50 52 50 L34 50" stroke="url(#g1)" stroke-width="6" stroke-linecap="round" fill="none"/>
  <path d="M34 50 L54 50 Q68 50 68 62 Q68 74 54 74 L34 74" stroke="url(#g2)" stroke-width="6" stroke-linecap="round" fill="none"/>
  <circle cx="72" cy="32" r="5" fill="#38bdf8"/>
  <circle cx="72" cy="32" r="3" fill="#ffffff"/>
  <defs>
    <linearGradient id="g1" x1="28" y1="26" x2="68" y2="50" gradientUnits="userSpaceOnUse">
      <stop offset="0%" stop-color="#60a5fa"/>
      <stop offset="100%" stop-color="#2563eb"/>
    </linearGradient>
    <linearGradient id="g2" x1="28" y1="50" x2="68" y2="74" gradientUnits="userSpaceOnUse">
      <stop offset="0%" stop-color="#2563eb"/>
      <stop offset="100%" stop-color="#0ea5e9"/>
    </linearGradient>
  </defs>
</svg>
